<?xml version="1.0" standalone="no"?>
<!DOCTYPE svg PUBLIC "-//W3C//DTD SVG 20010904//EN"
 "http://www.w3.org/TR/2001/REC-SVG-20010904/DTD/svg10.dtd">
<svg version="1.0" xmlns="http://www.w3.org/2000/svg"
 width="317.000000pt" height="238.000000pt" viewBox="0 0 317.000000 238.000000"
 preserveAspectRatio="xMidYMid meet">

<g transform="translate(0.000000,238.000000) scale(0.100000,-0.100000)"
fill="#000000" stroke="none">
<path d="M0 1786 l0 -594 24 -6 c40 -10 83 -53 101 -101 17 -42 17 -46 -2 -77
-10 -18 -42 -46 -71 -63 l-51 -30 -1 -457 0 -458 1585 0 1585 0 0 415 c0 413
0 415 -21 415 -11 0 -28 -4 -38 -9 -25 -14 -111 6 -111 26 0 9 10 32 22 51 12
20 24 56 26 81 6 77 33 101 72 66 10 -9 25 -13 34 -9 13 5 16 23 16 118 l0
111 -65 29 c-69 31 -97 63 -108 124 -6 29 -3 35 26 53 26 16 43 19 90 16 l57
-5 0 449 0 449 -1585 0 -1585 0 0 -594z m1485 449 c-5 -2 -22 -6 -37 -9 -28
-6 -173 -124 -164 -133 6 -6 88 42 109 64 9 10 26 29 37 41 12 13 24 22 26 19
13 -13 -148 -147 -176 -147 -5 0 -24 -13 -42 -29 -18 -15 -52 -40 -75 -54 -38
-24 -130 -127 -175 -195 -10 -15 -20 -47 -24 -72 -9 -59 -33 -122 -53 -138
-13 -10 -16 -32 -16 -102 0 -50 1 -90 3 -90 2 0 20 35 40 78 22 45 38 70 40
60 2 -10 -12 -44 -32 -75 -19 -32 -44 -89 -55 -128 -10 -38 -26 -87 -35 -107
-9 -21 -16 -49 -16 -63 0 -16 -4 -24 -10 -20 -13 8 -3 68 16 107 8 15 13 31
12 35 0 4 5 22 12 38 12 29 15 180 4 216 -2 9 7 30 21 47 14 16 25 32 25 35 0
3 -33 6 -73 6 -40 0 -84 4 -97 9 -72 28 -101 119 -58 181 36 54 89 76 178 75
43 0 90 -7 110 -16 l35 -15 68 73 c37 40 77 76 87 79 10 3 18 11 16 18 -1 7
-1 9 1 5 6 -11 82 52 88 73 6 17 123 117 155 131 8 4 26 7 40 7 14 -1 21 -2
15 -4z m140 -23 c-3 -3 -11 0 -18 7 -9 10 -8 11 6 5 10 -3 15 -9 12 -12z m351
-228 c23 -13 60 -46 83 -72 23 -26 57 -63 76 -83 19 -19 35 -42 35 -50 -1 -8
-8 -2 -16 14 -8 15 -21 27 -28 27 -8 0 -22 13 -33 29 -32 50 -81 100 -120 123
-50 28 -139 76 -185 99 -20 11 -39 23 -43 28 -5 10 157 -71 231 -115z m-21
-70 c108 -53 145 -84 145 -125 0 -34 57 -180 76 -195 8 -6 14 -20 14 -31 0
-11 7 -38 17 -59 9 -22 17 -46 18 -54 1 -8 10 -46 19 -84 26 -107 12 -88 -19
26 -15 57 -53 162 -85 233 -31 72 -60 146 -64 167 -8 43 -38 69 -146 122 -41
21 -77 40 -79 42 -12 12 18 -1 104 -42z m-277 -141 c-10 -2 -26 -2 -35 0 -10
3 -2 5 17 5 19 0 27 -2 18 -5z m67 -13 c13 -5 14 -9 5 -9 -8 0 -24 4 -35 9
-13 5 -14 9 -5 9 8 0 24 -4 35 -9z m-415 -15 c-46 -18 -64 -17 -25 0 17 8 37
14 45 14 8 0 -1 -7 -20 -14z m859 -35 c0 -23 -1 -23 -9 -5 -5 11 -9 29 -9 40
-1 17 1 17 9 5 5 -8 9 -26 9 -40z m-443 -44 c45 -21 109 -81 109 -103 0 -11
43 -61 85 -100 88 -82 113 -111 130 -149 10 -23 32 -51 49 -63 32 -23 40 -19
19 9 -7 9 -2 4 12 -11 19 -21 26 -40 28 -75 1 -26 10 -58 19 -71 10 -14 28
-43 40 -66 l22 -42 -6 35 c-3 19 -13 46 -22 60 -15 23 -15 24 2 11 28 -22 41
-82 27 -125 -6 -20 -9 -50 -5 -66 4 -17 2 -30 -3 -30 -11 0 -32 -45 -32 -69 0
-22 26 -34 123 -56 61 -13 82 -23 94 -42 9 -13 33 -33 55 -44 29 -15 38 -25
38 -45 0 -14 12 -40 26 -57 l26 -31 -22 -18 c-22 -18 -21 -18 38 -18 78 0 107
-12 132 -52 64 -106 -22 -195 -180 -186 -91 5 -112 23 -113 98 -1 44 3 56 24
72 51 41 59 48 59 59 0 6 -16 -3 -35 -20 -20 -17 -40 -31 -45 -31 -4 0 -21
-11 -37 -24 -18 -15 -34 -22 -42 -17 -10 6 -3 18 23 45 20 20 43 36 51 36 8 0
19 9 25 20 6 11 16 20 22 20 6 0 -3 -13 -20 -30 -18 -16 -36 -30 -40 -30 -12
0 -52 -39 -52 -51 0 -10 25 7 94 64 19 15 50 34 70 42 32 14 35 18 26 35 -6
11 -16 20 -22 20 -9 0 -9 -3 0 -12 7 -7 12 -16 12 -22 0 -5 -3 -6 -6 -3 -4 3
-16 2 -28 -4 -19 -9 -19 -9 -4 4 17 13 17 15 -2 32 -20 18 -27 59 -12 68 4 3
7 -9 7 -25 0 -18 6 -33 14 -36 10 -3 12 0 8 12 -4 10 -7 29 -7 42 0 16 -6 24
-17 24 -9 0 -33 17 -53 38 -30 32 -49 42 -111 57 -41 10 -94 29 -119 42 -25
13 -37 22 -27 19 13 -4 17 1 17 24 0 16 4 32 10 35 5 3 15 15 21 26 20 38 -91
-54 -122 -100 -31 -48 -38 -48 -14 -1 8 15 36 45 62 66 27 21 52 41 56 45 5 4
12 23 17 43 9 39 -5 93 -32 123 -24 28 -38 59 -38 88 0 18 -17 43 -56 82 -30
31 -58 69 -61 84 -3 16 -26 47 -52 71 -66 60 -85 78 -123 118 -70 72 -139 130
-156 131 -9 0 -12 3 -5 5 7 3 22 0 33 -6 12 -6 24 -9 27 -7 11 12 -67 41 -127
47 l-65 7 55 1 c39 1 70 -5 106 -22z m-173 7 c-7 -2 -19 -2 -25 0 -7 3 -2 5
12 5 14 0 19 -2 13 -5z m-98 -28 c-33 -14 -76 -28 -95 -31 -47 -9 -126 -49
-133 -69 -9 -22 -2 -19 63 20 32 19 62 35 66 35 5 0 -18 -17 -51 -38 -34 -20
-93 -65 -133 -99 -46 -40 -81 -63 -95 -62 -19 1 -19 2 -3 6 26 7 138 95 144
113 3 7 -16 -3 -42 -24 -67 -56 -56 -35 21 40 61 58 140 103 186 104 7 1 23 7
37 15 14 8 41 14 60 14 33 1 32 -1 -25 -24z m210 15 c25 -11 -1 -11 -35 0 -20
6 -21 8 -5 8 11 0 29 -3 40 -8z m-87 -7 c-10 -2 -28 -2 -40 0 -13 2 -5 4 17 4
22 1 32 -1 23 -4z m-103 -28 c-22 -13 -44 -24 -50 -25 -5 0 8 11 30 25 22 13
45 24 50 25 6 0 -8 -11 -30 -25z m545 -112 c0 -8 -9 0 -50 45 l-45 47 48 -45
c26 -24 47 -45 47 -47z m-1600 17 c111 -57 131 -195 38 -264 -23 -17 -44 -20
-135 -20 -125 -1 -164 13 -200 69 -43 65 -24 132 49 180 85 56 180 70 248 35z
m1056 -47 c-3 -7 0 -15 6 -19 7 -4 6 -10 -3 -16 -11 -8 -11 -9 1 -5 8 2 16 16
18 30 2 16 10 27 18 27 8 0 12 -5 9 -11 -4 -5 1 -19 10 -29 15 -17 14 -19 -19
-30 -35 -11 -47 -32 -26 -45 6 -3 10 3 10 14 0 21 11 27 23 14 4 -3 2 -12 -4
-20 -9 -10 -8 -13 5 -13 10 0 14 -4 11 -10 -3 -5 3 -10 14 -10 26 0 27 9 4 26
-24 16 -11 28 30 26 31 -1 33 1 33 33 0 22 -5 35 -13 35 -9 0 -11 -9 -7 -29 5
-26 3 -30 -14 -28 -23 1 -33 26 -25 57 4 14 14 20 34 20 15 0 31 -4 34 -10 3
-5 15 -10 26 -10 11 0 17 -5 14 -10 -10 -16 26 -25 37 -9 7 11 11 11 15 2 2
-7 13 -13 24 -13 13 0 19 -7 19 -22 0 -19 -1 -20 -12 -6 -10 12 -19 14 -36 7
-26 -10 -20 -34 7 -25 13 5 13 4 -2 -8 -9 -7 -35 -16 -57 -20 -26 -4 -40 -12
-40 -21 0 -8 -12 -18 -27 -21 -16 -4 -33 -11 -40 -16 -7 -5 -13 -5 -17 0 -3 5
-24 12 -47 16 -54 9 -63 15 -48 32 9 11 8 14 -6 14 -32 0 -85 32 -85 51 0 11
7 19 15 19 8 0 15 -9 15 -20 0 -22 15 -27 26 -9 3 6 1 16 -5 22 -16 16 -13 27
8 27 10 0 21 6 24 14 3 8 15 14 27 13 12 -1 18 -6 16 -14z m-438 -94 c-10 -5
-18 -17 -18 -24 0 -8 -4 -15 -9 -15 -5 0 -21 -20 -36 -46 -14 -25 -49 -61 -76
-81 -27 -19 -52 -46 -55 -60 -9 -36 3 -93 24 -117 35 -39 35 -51 0 -18 -19 18
-37 30 -39 27 -3 -2 -3 23 -1 58 3 48 10 68 28 88 13 14 22 28 19 30 -2 3 12
21 33 40 l37 34 -34 -37 c-19 -21 -31 -38 -25 -38 21 0 55 33 81 78 31 55 62
92 77 92 6 0 3 -5 -6 -11z m726 -7 c3 -5 -1 -9 -9 -9 -8 0 -12 4 -9 9 3 4 7 8
9 8 2 0 6 -4 9 -8z m146 -1 c-8 -5 -33 -12 -55 -15 l-40 -6 45 14 c53 17 71
19 50 7z m-683 -7 c-3 -3 -12 -4 -19 -1 -8 3 -5 6 6 6 11 1 17 -2 13 -5z m183
-13 c13 -13 12 -14 -4 -8 -10 4 -24 7 -32 7 -9 0 -13 4 -10 8 8 13 31 10 46
-7z m315 9 c3 -5 1 -10 -4 -10 -6 0 -11 5 -11 10 0 6 2 10 4 10 3 0 8 -4 11
-10z m-380 -15 c28 -7 40 -13 28 -14 -15 -1 -23 -7 -23 -19 0 -24 -19 -42 -45
-42 -12 0 -47 -18 -78 -40 -71 -51 -78 -51 -22 1 25 23 51 53 58 67 6 15 23
29 37 33 l25 6 -30 7 c-47 12 -52 14 -25 14 14 0 48 -6 75 -13z m349 5 c-16
-14 -64 -21 -64 -10 0 6 5 8 10 5 6 -3 10 -3 10 2 0 4 12 9 26 10 14 0 22 -2
18 -7z m91 -10 c-16 -4 -43 -8 -60 -8 -29 1 -29 1 5 8 19 4 46 7 60 8 22 0 22
-1 -5 -8z m-122 -25 c-17 -7 -38 -26 -47 -42 -17 -32 -21 -26 -6 12 9 25 39
43 70 44 8 0 1 -6 -17 -14z m312 -25 c-21 -22 -41 -37 -44 -35 -6 7 60 75 73
75 6 0 -7 -18 -29 -40z m-514 3 c5 -14 8 -34 6 -42 -3 -10 -5 -8 -6 7 0 12 -4
22 -9 22 -4 0 -34 -22 -67 -50 -33 -27 -64 -50 -68 -50 -9 0 74 74 110 97 18
12 21 19 12 29 -9 11 -9 14 0 14 6 0 16 -12 22 -27z m-397 -89 c10 -14 32 -32
49 -39 18 -8 27 -14 20 -15 -46 -1 -104 69 -102 122 1 17 3 15 9 -9 4 -18 15
-44 24 -59z m504 69 c-16 -2 -40 -2 -55 0 -16 2 -3 4 27 4 30 0 43 -2 28 -4z
m-62 -87 c-8 -25 -28 -69 -46 -96 -43 -68 -38 -85 25 -85 49 0 50 1 56 35 l6
35 2 -33 c1 -38 32 -55 78 -43 42 11 41 41 -6 108 -23 32 -44 74 -47 93 -5 33
-4 32 19 -15 13 -27 37 -61 52 -75 25 -23 26 -23 14 -3 -17 29 -6 39 26 25 14
-7 36 -12 49 -12 13 0 34 -9 47 -21 l24 -20 -65 6 c-45 4 -60 3 -50 -5 8 -5
29 -10 47 -10 17 0 34 -6 36 -12 4 -10 8 -9 17 2 18 23 8 0 -25 -57 -19 -33
-37 -53 -48 -53 -10 0 -16 4 -13 9 9 14 -18 20 -35 7 -9 -6 -14 -16 -12 -23 2
-7 -8 -13 -24 -15 -17 -2 -28 -9 -28 -18 0 -8 -4 -15 -10 -15 -5 0 -9 11 -7
24 3 21 1 23 -12 12 -8 -7 -13 -18 -10 -26 5 -13 -13 -31 -22 -22 -3 2 1 25 8
51 9 36 9 49 0 58 -9 9 -12 7 -14 -12 -2 -44 -3 -48 -10 -55 -4 -4 -4 -13 -1
-21 3 -8 -1 -14 -11 -14 -12 0 -14 7 -10 33 4 22 3 28 -4 18 -6 -8 -18 -11
-31 -6 -17 5 -21 2 -21 -14 0 -12 -5 -21 -10 -21 -6 0 -8 14 -6 33 3 17 3 26
0 20 -8 -18 -25 -16 -18 2 4 8 1 15 -5 15 -6 0 -11 -4 -11 -10 0 -5 -8 -10
-18 -10 -18 0 -58 62 -55 87 0 7 -3 11 -7 8 -4 -3 -10 2 -14 10 -3 8 -2 14 2
13 15 -4 98 15 123 27 23 13 42 45 69 119 17 46 21 24 6 -28z m168 -17 c22
-10 35 -19 28 -19 -39 0 -93 48 -91 82 0 7 5 0 11 -16 7 -18 24 -34 52 -47z
m-223 32 c-6 -11 -21 -26 -34 -32 -18 -10 -17 -7 8 23 33 38 43 42 26 9z m569
-1 c-11 -21 -48 -45 -57 -37 -2 3 5 8 16 12 12 3 26 15 31 26 6 10 13 19 16
19 2 0 0 -9 -6 -20z m20 -46 c-15 -43 -71 -76 -133 -80 -44 -3 -47 -2 -17 5
56 12 120 50 138 81 20 35 25 33 12 -6z m220 16 c0 -6 9 -30 20 -52 23 -48 19
-65 -4 -19 -27 52 -36 81 -26 81 6 0 10 -5 10 -10z m-1137 -62 c23 -12 58 -25
77 -29 33 -6 33 -7 -14 -8 -54 -1 -103 23 -130 64 -22 34 -20 43 4 17 12 -12
40 -32 63 -44z m807 42 c-14 -4 -68 -8 -120 -7 l-95 1 100 6 c149 9 143 9 115
0z m-722 -7 c-10 -2 -28 -2 -40 0 -13 2 -5 4 17 4 22 1 32 -1 23 -4z m140 0
c-10 -2 -28 -2 -40 0 -13 2 -5 4 17 4 22 1 32 -1 23 -4z m99 -9 c0 -23 -35
-41 -92 -48 -46 -6 -48 -5 -33 10 9 10 38 25 65 34 63 23 60 22 60 4z m40
-116 c-3 -8 -6 -5 -6 6 -1 11 2 17 5 13 3 -3 4 -12 1 -19z m120 0 c-3 -8 -6
-5 -6 6 -1 11 2 17 5 13 3 -3 4 -12 1 -19z m-739 -58 c10 -30 22 -63 27 -72 4
-10 3 -18 -2 -18 -5 0 -19 20 -31 45 -12 25 -28 45 -35 45 -11 0 -12 7 -3 35
13 41 19 37 44 -35z m1778 46 c89 -41 109 -89 81 -185 -28 -92 -78 -112 -215
-85 -110 22 -142 49 -142 119 0 84 43 133 141 159 72 20 76 19 135 -8z m-2126
-17 c34 -9 52 -37 45 -68 -4 -17 -3 -31 2 -31 4 0 8 -15 8 -33 0 -24 -7 -39
-22 -51 -13 -9 -23 -12 -23 -6 0 5 -5 10 -11 10 -5 0 -7 -5 -3 -12 5 -8 2 -9
-9 -5 -10 3 -17 3 -17 -1 0 -13 -81 -14 -112 -1 -32 13 -58 55 -58 94 0 76
102 130 200 104z m715 -9 c-3 -5 -1 -10 5 -10 6 0 9 -4 6 -9 -4 -5 0 -12 6
-14 10 -4 10 -6 1 -6 -14 -1 -35 33 -26 43 10 9 15 7 8 -4z m-17 -33 c11 -19
27 -45 36 -59 10 -15 13 -29 8 -32 -12 -7 -76 90 -68 103 3 5 0 12 -6 14 -9 4
-9 6 -1 6 6 1 20 -14 31 -32z m702 7 c-17 -44 -73 -115 -83 -105 -11 11 71
130 90 131 1 0 -2 -12 -7 -26z m-239 -17 c-8 -8 -11 -7 -11 4 0 20 13 34 18
19 3 -7 -1 -17 -7 -23z m191 24 c-8 -4 -13 -12 -12 -17 1 -5 -4 -10 -12 -12
-9 -2 -8 0 2 7 8 6 11 11 7 11 -5 0 -5 5 -2 10 3 6 12 10 18 10 8 0 8 -3 -1
-9z m-136 -30 c-4 -5 -1 -12 4 -14 6 -3 5 -4 -2 -3 -15 3 -23 26 -8 26 6 0 9
-4 6 -9z m-541 -39 c17 -22 21 -31 10 -22 -23 17 60 -69 150 -157 34 -33 50
-45 38 -27 -12 17 -28 36 -36 42 -8 7 -12 26 -10 49 2 21 4 51 4 67 l1 29 35
-36 c32 -35 51 -48 39 -28 -4 5 3 7 14 4 11 -3 20 -9 20 -14 0 -5 6 -6 13 -3
8 2 18 -7 24 -23 9 -23 11 -24 10 -6 -1 12 3 23 8 25 16 5 18 -121 3 -140 -11
-13 -11 -14 0 -8 10 6 13 3 10 -10 -2 -11 -10 -18 -18 -16 -8 2 -32 5 -54 6
-37 3 -52 14 -168 127 -77 76 -129 135 -133 152 -10 38 5 34 40 -11z m75 23
c0 -8 -2 -15 -4 -15 -2 0 -6 7 -10 15 -3 8 -1 15 4 15 6 0 10 -7 10 -15z m150
11 c0 -3 -4 -8 -10 -11 -5 -3 -10 -1 -10 4 0 6 5 11 10 11 6 0 10 -2 10 -4z
m70 -15 c0 -5 -7 -11 -15 -15 -9 -3 -15 0 -15 9 0 8 7 15 15 15 8 0 15 -4 15
-9z m158 -9 c2 -7 -3 -12 -12 -12 -9 0 -16 7 -16 16 0 17 22 14 28 -4z m32 8
c0 -5 -4 -10 -10 -10 -5 0 -10 5 -10 10 0 6 5 10 10 10 6 0 10 -4 10 -10z m35
0 c3 -5 1 -10 -4 -10 -6 0 -11 5 -11 10 0 6 2 10 4 10 3 0 8 -4 11 -10z m125
-10 c-6 -11 -13 -20 -16 -20 -2 0 0 9 6 20 6 11 13 20 16 20 2 0 0 -9 -6 -20z
m120 -2 c0 -14 -20 -40 -57 -73 -31 -27 -92 -83 -134 -124 -80 -75 -84 -77
-184 -84 -29 -2 -30 0 -31 38 -1 22 -2 60 -3 85 -4 63 -3 65 18 46 15 -13 20
-14 24 -4 4 10 8 10 16 -2 9 -13 11 -12 11 4 0 15 3 16 14 7 10 -9 15 -8 20 4
3 8 10 15 17 15 6 0 8 -7 5 -16 -5 -14 -4 -15 9 -4 9 7 13 15 11 18 -3 2 8 15
23 28 31 26 50 32 33 12 -5 -8 -6 -22 -1 -33 4 -11 8 -35 8 -52 1 -18 5 -33 9
-33 5 0 34 27 65 59 31 33 65 62 75 65 11 4 22 19 26 36 6 35 26 40 26 8z
m-1030 -61 c0 -7 38 -47 85 -90 61 -56 87 -88 94 -114 6 -20 21 -48 34 -62 13
-14 30 -45 37 -69 9 -27 23 -48 39 -57 30 -16 24 -19 -11 -6 -16 6 -29 23 -38
53 -7 23 -25 59 -40 78 -15 19 -30 46 -33 60 -3 14 -47 67 -97 117 -49 51 -90
97 -90 103 0 6 5 8 10 5 6 -3 10 -12 10 -18z m715 13 c3 -5 -1 -10 -10 -10 -9
0 -13 5 -10 10 3 6 8 10 10 10 2 0 7 -4 10 -10z m-755 -8 c0 -10 -92 -42 -119
-42 -18 0 -50 -31 -92 -90 -42 -58 -44 -67 -9 -35 33 30 32 22 -3 -27 -11 -15
-17 -33 -14 -42 4 -10 1 -13 -7 -10 -25 10 -28 -17 -4 -40 36 -35 59 -66 49
-66 -5 0 -18 11 -28 23 -10 13 -28 29 -41 36 -12 7 -22 21 -22 33 0 20 -2 21
-15 8 -24 -25 -7 -54 48 -83 29 -15 58 -27 65 -27 6 0 12 -10 11 -22 0 -17 -2
-19 -7 -8 -10 21 -24 22 -89 4 -161 -46 -293 23 -275 143 2 11 19 37 38 57 19
19 34 39 34 44 0 13 63 24 97 17 15 -4 50 -16 77 -28 l49 -22 16 25 c60 90 89
118 143 130 29 7 60 16 68 21 19 11 30 11 30 1z m630 -2 c0 -5 -4 -10 -10 -10
-5 0 -10 5 -10 10 0 6 5 10 10 10 6 0 10 -4 10 -10z m40 0 c0 -5 -5 -10 -11
-10 -5 0 -7 5 -4 10 3 6 8 10 11 10 2 0 4 -4 4 -10z m50 0 c0 -5 -4 -10 -9
-10 -6 0 -13 5 -16 10 -3 6 1 10 9 10 9 0 16 -4 16 -10z m525 -107 c-16 -3
-37 -10 -45 -16 -13 -10 -13 -10 -1 6 8 10 25 16 45 16 l31 -2 -30 -4z m-65
-6 c0 -2 -10 -12 -22 -23 l-23 -19 19 23 c18 21 26 27 26 19z m127 -3 c-3 -3
-12 -4 -19 -1 -8 3 -5 6 6 6 11 1 17 -2 13 -5z m50 -10 c-3 -3 -12 -4 -19 -1
-8 3 -5 6 6 6 11 1 17 -2 13 -5z m57 -17 c11 -8 16 -20 13 -28 -4 -11 -6 -10
-6 3 -1 9 -13 21 -28 26 -16 6 -21 11 -12 11 8 1 23 -5 33 -12z m-227 -19 c-3
-8 -6 -5 -6 6 -1 11 2 17 5 13 3 -3 4 -12 1 -19z m1017 -33 c16 -24 16 -25 -9
-25 -32 0 -61 14 -69 35 -4 12 2 15 28 15 25 0 38 -7 50 -25z m-878 -15 c33
-15 44 -26 40 -36 -3 -9 -6 -20 -6 -26 0 -5 -14 -7 -32 -4 l-33 6 27 -12 c25
-12 25 -15 15 -48 -8 -22 -19 -36 -32 -37 l-20 -3 20 9 20 10 -20 1 -20 1 20
9 c14 6 15 9 5 10 -10 1 -9 4 5 10 17 7 17 9 3 9 -10 1 -18 7 -18 14 -1 6 -8
0 -16 -15 -8 -16 -22 -28 -32 -27 -14 0 -14 2 3 9 17 7 17 9 3 9 -10 1 -18 9
-19 19 0 10 -3 12 -6 5 -2 -7 -12 -13 -21 -13 -15 0 -15 -2 -2 -10 13 -9 13
-10 0 -10 -8 0 -22 5 -30 10 -8 5 -10 10 -5 10 6 0 12 12 13 27 1 15 7 30 13
34 6 4 9 13 7 20 -3 8 -1 22 4 33 12 22 43 18 114 -14z m-232 -61 c-28 -30
-127 -89 -148 -89 -6 0 13 13 43 28 29 15 69 41 90 59 46 41 53 42 15 2z m106
-69 c8 -5 11 -10 5 -10 -5 0 -17 5 -25 10 -8 5 -10 10 -5 10 6 0 17 -5 25 -10z
m-410 -4 c0 -2 -8 -10 -17 -17 -16 -13 -17 -12 -4 4 13 16 21 21 21 13z m-844
-34 c-4 -3 -14 2 -24 12 -16 18 -16 18 6 6 13 -6 21 -14 18 -18z m1317 21 c-7
-2 -19 -2 -25 0 -7 3 -2 5 12 5 14 0 19 -2 13 -5z m-1352 -19 c16 -8 39 -12
50 -9 14 5 30 -3 55 -24 19 -17 40 -31 46 -31 6 0 9 -3 6 -6 -4 -3 -16 0 -28
6 -12 6 -24 9 -27 6 -4 -3 11 -13 33 -21 21 -8 53 -22 69 -29 17 -8 44 -17 60
-20 l30 -6 -25 15 c-33 19 -22 19 24 0 20 -9 53 -31 74 -49 51 -46 154 -96
197 -96 38 0 103 -28 124 -54 9 -11 12 -30 8 -59 -4 -28 -3 -35 2 -21 5 11 25
35 46 52 31 28 42 32 73 28 20 -3 28 -3 17 1 -16 4 -10 9 25 19 50 15 76 17
45 4 -18 -8 -18 -9 5 -10 14 -1 -8 -10 -49 -21 -49 -12 -84 -27 -104 -46 -17
-15 -25 -20 -18 -10 10 12 10 17 1 17 -6 0 -17 -13 -23 -30 -13 -34 -49 -43
-40 -10 15 56 -41 110 -112 110 -51 0 -179 61 -230 110 -22 21 -49 40 -60 42
-18 3 -20 -2 -19 -49 1 -29 -2 -53 -7 -53 -5 0 -9 24 -9 54 l0 54 -75 33 c-41
18 -82 43 -90 56 -9 13 -25 23 -40 23 -13 0 -27 5 -30 10 -3 6 -23 10 -43 11
-30 0 -33 2 -17 9 11 5 21 9 23 9 2 1 16 -6 33 -15z m1342 -1 c-7 -2 -19 -2
-25 0 -7 3 -2 5 12 5 14 0 19 -2 13 -5z m54 -9 c-3 -3 -12 -4 -19 -1 -8 3 -5
6 6 6 11 1 17 -2 13 -5z m-60 -10 c-3 -3 -12 -4 -19 -1 -8 3 -5 6 6 6 11 1 17
-2 13 -5z m56 -11 c-7 -2 -19 -2 -25 0 -7 3 -2 5 12 5 14 0 19 -2 13 -5z
m-133 -23 c12 -8 9 -10 -12 -10 -15 0 -30 5 -33 10 -8 13 25 13 45 0z m60 -20
c0 -5 -6 -10 -14 -10 -8 0 -18 5 -21 10 -3 6 3 10 14 10 12 0 21 -4 21 -10z
m-115 -18 c-3 -3 -11 0 -18 7 -9 10 -8 11 6 5 10 -3 15 -9 12 -12z m180 8 c4
-6 -7 -10 -24 -10 -17 0 -31 5 -31 10 0 6 11 10 24 10 14 0 28 -4 31 -10z
m132 -20 c-29 -23 -94 -50 -121 -50 -11 0 -38 -5 -58 -11 -38 -10 -38 -11 -39
-62 -1 -47 -2 -49 -10 -22 -13 44 -2 77 34 103 27 19 29 22 11 22 -12 0 -27
-7 -34 -15 -7 -8 -42 -24 -79 -35 -36 -11 -75 -27 -85 -35 -28 -22 -9 -18 59
10 33 13 67 24 75 24 10 0 11 -2 3 -6 -7 -2 -13 -13 -13 -24 0 -10 -4 -19 -10
-19 -5 0 -10 7 -10 15 0 19 -8 19 -42 1 -14 -8 -43 -19 -65 -26 -73 -24 -113
-49 -114 -73 -1 -17 -2 -18 -6 -4 -4 14 -12 17 -41 12 -34 -5 -32 -4 13 13 28
11 70 29 95 41 38 17 41 21 20 22 -22 1 -23 2 -5 8 11 3 34 13 50 22 17 10 50
22 75 29 25 6 58 20 73 31 21 15 36 19 59 13 l32 -6 -30 -13 c-29 -13 -29 -13
11 -8 22 3 47 12 55 19 9 7 27 11 40 8 20 -5 22 -3 10 5 -13 9 -13 11 1 11 9
0 22 6 29 14 6 8 18 12 26 9 11 -4 9 -9 -9 -23z m-1287 10 c8 -5 11 -10 5 -10
-5 0 -17 5 -25 10 -8 5 -10 10 -5 10 6 0 17 -5 25 -10z m1017 -6 c-3 -3 -12
-4 -19 -1 -8 3 -5 6 6 6 11 1 17 -2 13 -5z m167 -18 c-3 -9 -10 -16 -15 -16
-5 0 -4 9 3 20 14 22 21 20 12 -4z m-1507 -108 c-3 -8 -6 -5 -6 6 -1 11 2 17
5 13 3 -3 4 -12 1 -19z m1163 -2 c0 -8 -112 -56 -129 -56 -9 1 0 7 19 14 19 7
49 20 65 29 30 16 45 21 45 13z m-643 -58 c-3 -8 -6 -5 -6 6 -1 11 2 17 5 13
3 -3 4 -12 1 -19z"/>
<path d="M1780 1623 c0 -10 52 -63 62 -63 5 0 -4 16 -19 35 -26 33 -43 44 -43
28z"/>
<path d="M2150 1221 c0 -5 5 -13 10 -16 6 -3 10 -2 10 4 0 5 -4 13 -10 16 -5
3 -10 2 -10 -4z"/>
<path d="M1435 1451 c-7 -12 12 -24 25 -16 11 7 4 25 -10 25 -5 0 -11 -4 -15
-9z"/>
<path d="M1670 1420 c0 -5 7 -10 15 -10 8 0 15 5 15 10 0 6 -7 10 -15 10 -8 0
-15 -4 -15 -10z"/>
<path d="M1610 1389 c0 -5 5 -7 10 -4 6 3 10 8 10 11 0 2 -4 4 -10 4 -5 0 -10
-5 -10 -11z"/>
<path d="M1476 1362 c-3 -5 1 -9 9 -9 8 0 12 4 9 9 -3 4 -7 8 -9 8 -2 0 -6 -4
-9 -8z"/>
<path d="M1731 1039 c-7 -12 -10 -23 -8 -26 3 -3 11 5 17 17 15 28 8 35 -9 9z"/>
<path d="M1390 1033 c0 -5 10 -18 23 -29 l22 -19 -20 25 c-11 14 -21 27 -22
29 -2 2 -3 0 -3 -6z"/>
<path d="M1741 1006 c-9 -10 -8 -15 3 -19 8 -3 17 1 20 8 7 20 -9 28 -23 11z"/>
<path d="M1386 995 c4 -8 11 -15 16 -15 6 0 5 6 -2 15 -7 8 -14 15 -16 15 -2
0 -1 -7 2 -15z"/>
<path d="M562 845 c-11 -12 -10 -15 3 -15 8 0 15 7 15 15 0 18 -2 18 -18 0z"/>
<path d="M1433 723 c19 -21 23 -38 7 -28 -15 9 -12 -1 4 -14 11 -9 15 -7 19 8
3 14 -3 25 -22 37 -26 17 -26 17 -8 -3z"/>
<path d="M1733 700 c-24 -29 -30 -45 -13 -35 14 9 52 65 43 64 -4 0 -18 -13
-30 -29z"/>
<path d="M1650 693 c0 -17 25 -16 39 1 10 11 7 14 -14 12 -14 0 -25 -7 -25
-13z"/>
<path d="M897 440 c9 -11 19 -17 21 -15 6 6 -18 35 -29 35 -5 0 -1 -9 8 -20z"/>
<path d="M1167 296 c25 -25 68 -54 95 -65 64 -26 61 -19 -4 14 -29 15 -69 42
-88 61 -20 19 -39 34 -43 34 -3 0 15 -20 40 -44z"/>
<path d="M1332 199 c7 -5 30 -9 51 -9 23 0 56 -10 83 -26 24 -14 44 -23 44
-20 0 16 -91 54 -138 59 -31 2 -48 1 -40 -4z"/>
<path d="M1688 163 c7 -3 16 -2 19 1 4 3 -2 6 -13 5 -11 0 -14 -3 -6 -6z"/>
<path d="M1586 135 c-11 -8 -16 -15 -10 -15 5 0 18 7 28 15 11 8 16 15 10 15
-5 0 -18 -7 -28 -15z"/>
<path d="M2319 373 c-13 -16 -12 -17 4 -4 16 13 21 21 13 21 -2 0 -10 -8 -17
-17z"/>
</g>
</svg>
